0
SECTION
2
HEADER
9
$ACADVER
1
AC1015
9
$INSUNITS
70
4
9
$MEASUREMENT
70
1
0
ENDSEC
0
SECTION
2
TABLES
0
TABLE
2
LTYPE
70
1
0
LTYPE
2
CONTINUOUS
70
0
3
Solid line
72
65
73
0
40
0.0
0
ENDTAB
0
TABLE
2
LAYER
70
8
0
LAYER
2
0
70
0
62
7
6
CONTINUOUS
0
LAYER
2
SILK_OUTLINE
70
0
62
3
6
CONTINUOUS
0
LAYER
2
BODY
70
0
62
8
6
CONTINUOUS
0
LAYER
2
MOUNT_HOLE
70
0
62
1
6
CONTINUOUS
0
LAYER
2
PAD_HINT
70
0
62
4
6
CONTINUOUS
0
LAYER
2
COURTYARD
70
0
62
5
6
CONTINUOUS
0
LAYER
2
ORIGIN
70
0
62
2
6
CONTINUOUS
0
LAYER
2
DOC
70
0
62
7
6
CONTINUOUS
0
ENDTAB
0
ENDSEC
0
SECTION
2
ENTITIES
0
LWPOLYLINE
8
BODY
90
28
70
1
10
36.60000
20
-32.77500
10
37.11764
20
-32.70685
10
37.60000
20
-32.50705
10
38.01421
20
-32.18922
10
38.33205
20
-31.77500
10
38.53185
20
-31.29264
10
38.60000
20
-30.77500
10
38.60000
20
30.77500
10
38.53185
20
31.29264
10
38.33205
20
31.77500
10
38.01421
20
32.18922
10
37.60000
20
32.50705
10
37.11764
20
32.70685
10
36.60000
20
32.77500
10
-36.60000
20
32.77500
10
-37.11764
20
32.70685
10
-37.60000
20
32.50705
10
-38.01421
20
32.18922
10
-38.33205
20
31.77500
10
-38.53185
20
31.29264
10
-38.60000
20
30.77500
10
-38.60000
20
-30.77500
10
-38.53185
20
-31.29264
10
-38.33205
20
-31.77500
10
-38.01421
20
-32.18922
10
-37.60000
20
-32.50705
10
-37.11764
20
-32.70685
10
-36.60000
20
-32.77500
0
LWPOLYLINE
8
SILK_OUTLINE
90
28
70
1
10
36.60000
20
-32.77500
10
37.11764
20
-32.70685
10
37.60000
20
-32.50705
10
38.01421
20
-32.18922
10
38.33205
20
-31.77500
10
38.53185
20
-31.29264
10
38.60000
20
-30.77500
10
38.60000
20
30.77500
10
38.53185
20
31.29264
10
38.33205
20
31.77500
10
38.01421
20
32.18922
10
37.60000
20
32.50705
10
37.11764
20
32.70685
10
36.60000
20
32.77500
10
-36.60000
20
32.77500
10
-37.11764
20
32.70685
10
-37.60000
20
32.50705
10
-38.01421
20
32.18922
10
-38.33205
20
31.77500
10
-38.53185
20
31.29264
10
-38.60000
20
30.77500
10
-38.60000
20
-30.77500
10
-38.53185
20
-31.29264
10
-38.33205
20
-31.77500
10
-38.01421
20
-32.18922
10
-37.60000
20
-32.50705
10
-37.11764
20
-32.70685
10
-36.60000
20
-32.77500
0
LWPOLYLINE
8
COURTYARD
90
28
70
1
10
37.10000
20
-33.77500
10
37.74705
20
-33.68982
10
38.35000
20
-33.44007
10
38.86777
20
-33.04277
10
39.26506
20
-32.52500
10
39.51481
20
-31.92205
10
39.60000
20
-31.27500
10
39.60000
20
31.27500
10
39.51481
20
31.92205
10
39.26506
20
32.52500
10
38.86777
20
33.04277
10
38.35000
20
33.44007
10
37.74705
20
33.68982
10
37.10000
20
33.77500
10
-37.10000
20
33.77500
10
-37.74705
20
33.68982
10
-38.35000
20
33.44007
10
-38.86777
20
33.04277
10
-39.26506
20
32.52500
10
-39.51481
20
31.92205
10
-39.60000
20
31.27500
10
-39.60000
20
-31.27500
10
-39.51481
20
-31.92205
10
-39.26506
20
-32.52500
10
-38.86777
20
-33.04277
10
-38.35000
20
-33.44007
10
-37.74705
20
-33.68982
10
-37.10000
20
-33.77500
0
LWPOLYLINE
8
BODY
90
20
70
1
10
16.70000
20
-17.70000
10
17.08268
20
-17.62388
10
17.40711
20
-17.40711
10
17.62388
20
-17.08268
10
17.70000
20
-16.70000
10
17.70000
20
16.70000
10
17.62388
20
17.08268
10
17.40711
20
17.40711
10
17.08268
20
17.62388
10
16.70000
20
17.70000
10
-16.70000
20
17.70000
10
-17.08268
20
17.62388
10
-17.40711
20
17.40711
10
-17.62388
20
17.08268
10
-17.70000
20
16.70000
10
-17.70000
20
-16.70000
10
-17.62388
20
-17.08268
10
-17.40711
20
-17.40711
10
-17.08268
20
-17.62388
10
-16.70000
20
-17.70000
0
LINE
8
ORIGIN
10
-2.00000
20
0.00000
30
0.0
11
2.00000
21
0.00000
31
0.0
0
LINE
8
ORIGIN
10
0.00000
20
-2.00000
30
0.0
11
0.00000
21
2.00000
31
0.0
0
CIRCLE
8
ORIGIN
10
0.00000
20
0.00000
30
0.0
40
0.30000
0
CIRCLE
8
MOUNT_HOLE
10
-25.50000
20
-26.75000
30
0.0
40
1.60000
0
CIRCLE
8
PAD_HINT
10
-25.50000
20
-26.75000
30
0.0
40
3.00000
0
TEXT
8
DOC
10
-23.30000
20
-25.55000
30
0.0
40
1.20000
1
1
0
CIRCLE
8
MOUNT_HOLE
10
25.50000
20
-26.75000
30
0.0
40
1.60000
0
CIRCLE
8
PAD_HINT
10
25.50000
20
-26.75000
30
0.0
40
3.00000
0
TEXT
8
DOC
10
27.70000
20
-25.55000
30
0.0
40
1.20000
1
2
0
CIRCLE
8
MOUNT_HOLE
10
25.50000
20
26.75000
30
0.0
40
1.60000
0
CIRCLE
8
PAD_HINT
10
25.50000
20
26.75000
30
0.0
40
3.00000
0
TEXT
8
DOC
10
27.70000
20
27.95000
30
0.0
40
1.20000
1
3
0
CIRCLE
8
MOUNT_HOLE
10
-25.50000
20
26.75000
30
0.0
40
1.60000
0
CIRCLE
8
PAD_HINT
10
-25.50000
20
26.75000
30
0.0
40
3.00000
0
TEXT
8
DOC
10
-23.30000
20
27.95000
30
0.0
40
1.20000
1
4
0
TEXT
8
DOC
10
-38.60000
20
35.77500
30
0.0
40
2.00000
1
CUAV X25 MEGA TOP
0
TEXT
8
DOC
10
-38.60000
20
-37.77500
30
0.0
40
1.50000
1
77.20x65.55mm  hole d=3.2
0
TEXT
8
DOC
10
-38.60000
20
-40.27500
30
0.0
40
1.20000
1
pitch 51.00 x 53.50  origin=center
0
ENDSEC
0
EOF
