0
SECTION
2
HEADER
9
$ACADVER
1
AC1015
9
$INSUNITS
70
4
9
$MEASUREMENT
70
1
0
ENDSEC
0
SECTION
2
TABLES
0
TABLE
2
LTYPE
70
1
0
LTYPE
2
CONTINUOUS
70
0
3
Solid line
72
65
73
0
40
0.0
0
ENDTAB
0
TABLE
2
LAYER
70
11
0
LAYER
2
0
70
0
62
7
6
CONTINUOUS
0
LAYER
2
OUTLINE
70
0
62
7
6
CONTINUOUS
0
LAYER
2
FEET
70
0
62
30
6
CONTINUOUS
0
LAYER
2
BODY
70
0
62
3
6
CONTINUOUS
0
LAYER
2
CORE
70
0
62
4
6
CONTINUOUS
0
LAYER
2
PORTS
70
0
62
6
6
CONTINUOUS
0
LAYER
2
MOUNT_HOLE
70
0
62
1
6
CONTINUOUS
0
LAYER
2
PAD_HINT
70
0
62
2
6
CONTINUOUS
0
LAYER
2
COURTYARD
70
0
62
5
6
CONTINUOUS
0
LAYER
2
ORIGIN
70
0
62
2
6
CONTINUOUS
0
LAYER
2
DOC
70
0
62
7
6
CONTINUOUS
0
ENDTAB
0
ENDSEC
0
SECTION
2
ENTITIES
0
LWPOLYLINE
8
OUTLINE
90
131
70
1
10
-36.47120
20
-22.64320
10
-37.54710
20
-22.02210
10
-38.16820
20
-20.94620
10
-38.25000
20
-14.87500
10
-43.53000
20
-14.87500
10
-43.53000
20
-7.12500
10
-38.25000
20
-7.12500
10
-38.25000
20
-6.65000
10
-43.33000
20
-6.65000
10
-43.33000
20
-0.15000
10
-38.25000
20
-0.15000
10
-38.25000
20
0.55000
10
-43.33000
20
0.55000
10
-43.33000
20
7.05000
10
-38.25000
20
7.05000
10
-38.25000
20
7.32500
10
-43.53000
20
7.32500
10
-43.53000
20
15.07500
10
-38.25000
20
15.07500
10
-38.25000
20
20.32500
10
-37.92850
20
21.52500
10
-37.05000
20
22.40350
10
-36.16330
20
22.70450
10
-31.50000
20
22.72500
10
-31.44870
20
27.55820
10
-31.04330
20
29.07110
10
-30.69620
20
29.77500
10
-29.74260
20
31.01760
10
-28.50000
20
31.97120
10
-27.79610
20
32.31830
10
-26.28320
20
32.72370
10
-24.71680
20
32.72370
10
-23.94710
20
32.57060
10
-22.50000
20
31.97120
10
-21.84740
20
31.53510
10
-20.73990
20
30.42760
10
-19.95670
20
29.07110
10
-19.55130
20
27.55820
10
-19.50000
20
22.72500
10
-18.12500
20
22.72500
10
-18.12500
20
28.20500
10
-7.87500
20
28.20500
10
-7.87500
20
22.72500
10
-3.00000
20
22.72500
10
-3.00000
20
29.10500
10
6.00000
20
29.10500
10
6.00000
20
23.02500
10
8.05000
20
23.02500
10
8.05000
20
22.72500
10
10.12500
20
22.72500
10
10.12500
20
28.00500
10
17.87500
20
28.00500
10
17.87500
20
22.72500
10
19.50000
20
22.72500
10
19.55130
20
27.55820
10
19.95670
20
29.07110
10
20.73990
20
30.42760
10
21.84740
20
31.53510
10
22.50000
20
31.97120
10
23.94710
20
32.57060
10
25.50000
20
32.77500
10
27.05290
20
32.57060
10
28.50000
20
31.97120
10
29.15260
20
31.53510
10
30.26010
20
30.42760
10
31.04330
20
29.07110
10
31.44870
20
27.55820
10
31.50000
20
22.72500
10
36.16330
20
22.70450
10
36.76840
20
22.54230
10
37.62400
20
21.99440
10
38.03560
20
21.52500
10
38.23630
20
20.93380
10
38.25000
20
17.30000
10
38.55000
20
17.30000
10
38.55000
20
16.57500
10
44.33000
20
16.57500
10
44.33000
20
3.82500
10
38.25000
20
3.82500
10
38.25000
20
3.25000
10
44.13000
20
3.25000
10
44.13000
20
-3.25000
10
38.25000
20
-3.25000
10
38.25000
20
-3.82500
10
44.33000
20
-3.82500
10
44.33000
20
-16.57500
10
38.25000
20
-16.57500
10
38.23630
20
-20.93380
10
37.78140
20
-21.85640
10
37.05000
20
-22.40350
10
36.16330
20
-22.70450
10
31.50000
20
-22.72500
10
31.44870
20
-27.55820
10
31.04330
20
-29.07110
10
30.69620
20
-29.77500
10
29.74260
20
-31.01760
10
28.50000
20
-31.97120
10
27.79610
20
-32.31830
10
26.28320
20
-32.72370
10
24.71680
20
-32.72370
10
23.94710
20
-32.57060
10
22.50000
20
-31.97120
10
21.84740
20
-31.53510
10
20.73990
20
-30.42760
10
19.95670
20
-29.07110
10
19.67995
20
-28.20500
10
12.37500
20
-28.20500
10
12.37500
20
-22.72500
10
10.87500
20
-22.72500
10
10.87500
20
-28.20500
10
-1.87500
20
-28.20500
10
-1.87500
20
-22.72500
10
-4.75000
20
-22.72500
10
-4.75000
20
-28.00500
10
-11.25000
20
-28.00500
10
-11.25000
20
-22.72500
10
-19.50000
20
-22.72500
10
-19.55130
20
-27.55820
10
-19.95670
20
-29.07110
10
-20.73990
20
-30.42760
10
-21.84740
20
-31.53510
10
-23.20390
20
-32.31830
10
-24.71680
20
-32.72370
10
-26.28320
20
-32.72370
10
-27.05290
20
-32.57060
10
-28.50000
20
-31.97120
10
-29.74260
20
-31.01760
10
-30.69620
20
-29.77500
10
-31.29560
20
-28.32790
10
-31.44870
20
-27.55820
10
-31.50000
20
-22.72500
0
LWPOLYLINE
8
OUTLINE
90
16
70
1
10
-26.30000
20
28.13560
10
-26.76940
20
27.72400
10
-27.04550
20
27.16410
10
-27.08630
20
26.54120
10
-26.88560
20
25.95000
10
-26.47400
20
25.48060
10
-25.91410
20
25.20450
10
-25.29120
20
25.16370
10
-24.70000
20
25.36440
10
-24.23060
20
25.77600
10
-23.95450
20
26.33590
10
-23.91370
20
26.95880
10
-24.11440
20
27.55000
10
-24.52600
20
28.01940
10
-25.08590
20
28.29550
10
-25.70880
20
28.33630
0
LWPOLYLINE
8
OUTLINE
90
16
70
1
10
-25.29120
20
-25.16370
10
-25.91410
20
-25.20450
10
-26.47400
20
-25.48060
10
-26.88560
20
-25.95000
10
-27.08630
20
-26.54120
10
-27.04550
20
-27.16410
10
-26.76940
20
-27.72400
10
-26.30000
20
-28.13560
10
-25.70880
20
-28.33630
10
-25.08590
20
-28.29550
10
-24.52600
20
-28.01940
10
-24.11440
20
-27.55000
10
-23.91370
20
-26.95880
10
-23.95450
20
-26.33590
10
-24.23060
20
-25.77600
10
-24.70000
20
-25.36440
0
LWPOLYLINE
8
OUTLINE
90
3
70
1
10
-27.73067
20
27.53059
10
-27.73067
20
27.53059
10
-27.73067
20
27.53059
0
LWPOLYLINE
8
OUTLINE
90
16
70
1
10
24.70000
20
28.13560
10
24.23060
20
27.72400
10
23.95450
20
27.16410
10
23.91370
20
26.54120
10
24.11440
20
25.95000
10
24.52600
20
25.48060
10
25.08590
20
25.20450
10
25.70880
20
25.16370
10
26.30000
20
25.36440
10
26.76940
20
25.77600
10
27.04550
20
26.33590
10
27.08630
20
26.95880
10
26.88560
20
27.55000
10
26.47400
20
28.01940
10
25.91410
20
28.29550
10
25.29120
20
28.33630
0
LWPOLYLINE
8
OUTLINE
90
16
70
1
10
25.91410
20
-25.20450
10
25.29120
20
-25.16370
10
24.70000
20
-25.36440
10
24.23060
20
-25.77600
10
23.95450
20
-26.33590
10
23.91370
20
-26.95880
10
24.11440
20
-27.55000
10
24.52600
20
-28.01940
10
25.08590
20
-28.29550
10
25.70880
20
-28.33630
10
26.30000
20
-28.13560
10
26.76940
20
-27.72400
10
27.04550
20
-27.16410
10
27.08630
20
-26.54120
10
26.88560
20
-25.95000
10
26.47400
20
-25.48060
0
LWPOLYLINE
8
OUTLINE
90
3
70
1
10
26.71782
20
1.12775
10
26.71782
20
1.12775
10
26.71782
20
1.12775
0
LWPOLYLINE
8
FEET
90
21
70
1
10
-31.29560
20
-12.42210
10
-30.69620
20
-10.97500
10
-29.15260
20
-9.21488
10
-27.79610
20
-8.43172
10
-26.28320
20
-8.02633
10
-24.71680
20
-8.02633
10
-22.50000
20
-8.77885
10
-20.73990
20
-10.32240
10
-19.95670
20
-11.67890
10
-19.50000
20
-13.97500
10
-19.55130
20
-27.55820
10
-19.95670
20
-29.07110
10
-20.73990
20
-30.42760
10
-21.84740
20
-31.53510
10
-23.20390
20
-32.31830
10
-25.50000
20
-32.77500
10
-27.79610
20
-32.31830
10
-29.74260
20
-31.01760
10
-31.04330
20
-29.07110
10
-31.50000
20
-26.77500
10
-31.50000
20
-13.97500
0
LWPOLYLINE
8
FEET
90
16
70
1
10
-25.91410
20
-25.20450
10
-26.47400
20
-25.48060
10
-26.88560
20
-25.95000
10
-27.08630
20
-26.54120
10
-27.04550
20
-27.16410
10
-26.76940
20
-27.72400
10
-26.30000
20
-28.13560
10
-25.70880
20
-28.33630
10
-25.08590
20
-28.29550
10
-24.52600
20
-28.01940
10
-24.11440
20
-27.55000
10
-23.91370
20
-26.95880
10
-23.95450
20
-26.33590
10
-24.23060
20
-25.77600
10
-24.70000
20
-25.36440
10
-25.29120
20
-25.16370
0
LWPOLYLINE
8
FEET
90
3
70
1
10
-27.73067
20
-27.53059
10
-27.73067
20
-27.53059
10
-27.73067
20
-27.53059
0
LWPOLYLINE
8
FEET
90
21
70
1
10
-31.29560
20
12.42210
10
-31.50000
20
13.97500
10
-31.50000
20
26.77500
10
-31.04330
20
29.07110
10
-29.74260
20
31.01760
10
-27.79610
20
32.31830
10
-25.50000
20
32.77500
10
-23.20390
20
32.31830
10
-21.84740
20
31.53510
10
-20.73990
20
30.42760
10
-19.95670
20
29.07110
10
-19.55130
20
27.55820
10
-19.50000
20
13.97500
10
-19.95670
20
11.67890
10
-20.73990
20
10.32240
10
-22.50000
20
8.77885
10
-24.71680
20
8.02633
10
-26.28320
20
8.02633
10
-27.79610
20
8.43172
10
-29.15260
20
9.21488
10
-30.69620
20
10.97500
0
LWPOLYLINE
8
FEET
90
16
70
1
10
-26.11230
20
28.22820
10
-26.63140
20
27.88140
10
-26.97820
20
27.36230
10
-27.10000
20
26.75000
10
-26.97820
20
26.13770
10
-26.63140
20
25.61860
10
-26.11230
20
25.27180
10
-25.50000
20
25.15000
10
-24.88770
20
25.27180
10
-24.36860
20
25.61860
10
-24.02180
20
26.13770
10
-23.90000
20
26.75000
10
-24.02180
20
27.36230
10
-24.36860
20
27.88140
10
-24.88770
20
28.22820
10
-25.50000
20
28.35000
0
LWPOLYLINE
8
FEET
90
3
70
1
10
-27.73067
20
27.53059
10
-27.73067
20
27.53059
10
-27.73067
20
27.53059
0
LWPOLYLINE
8
FEET
90
21
70
1
10
19.70440
20
-12.42210
10
20.30380
20
-10.97500
10
21.84740
20
-9.21488
10
23.20390
20
-8.43172
10
24.71680
20
-8.02633
10
26.28320
20
-8.02633
10
28.50000
20
-8.77885
10
30.26010
20
-10.32240
10
31.04330
20
-11.67890
10
31.50000
20
-13.97500
10
31.44870
20
-27.55820
10
31.04330
20
-29.07110
10
30.26010
20
-30.42760
10
29.15260
20
-31.53510
10
27.79610
20
-32.31830
10
25.50000
20
-32.77500
10
23.20390
20
-32.31830
10
21.25740
20
-31.01760
10
19.95670
20
-29.07110
10
19.50000
20
-26.77500
10
19.50000
20
-13.97500
0
LWPOLYLINE
8
FEET
90
16
70
1
10
25.08590
20
-25.20450
10
24.52600
20
-25.48060
10
24.11440
20
-25.95000
10
23.91370
20
-26.54120
10
23.95450
20
-27.16410
10
24.23060
20
-27.72400
10
24.70000
20
-28.13560
10
25.29120
20
-28.33630
10
25.91410
20
-28.29550
10
26.47400
20
-28.01940
10
26.88560
20
-27.55000
10
27.08630
20
-26.95880
10
27.04550
20
-26.33590
10
26.76940
20
-25.77600
10
26.30000
20
-25.36440
10
25.70880
20
-25.16370
0
LWPOLYLINE
8
FEET
90
21
70
1
10
19.70440
20
12.42210
10
19.50000
20
13.97500
10
19.50000
20
26.77500
10
19.95670
20
29.07110
10
21.25740
20
31.01760
10
23.20390
20
32.31830
10
25.50000
20
32.77500
10
27.79610
20
32.31830
10
29.15260
20
31.53510
10
30.26010
20
30.42760
10
31.04330
20
29.07110
10
31.44870
20
27.55820
10
31.50000
20
13.97500
10
31.04330
20
11.67890
10
30.26010
20
10.32240
10
28.50000
20
8.77885
10
26.28320
20
8.02633
10
24.71680
20
8.02633
10
23.20390
20
8.43172
10
21.84740
20
9.21488
10
20.30380
20
10.97500
0
LWPOLYLINE
8
FEET
90
16
70
1
10
24.88770
20
28.22820
10
24.36860
20
27.88140
10
24.02180
20
27.36230
10
23.90000
20
26.75000
10
24.02180
20
26.13770
10
24.36860
20
25.61860
10
24.88770
20
25.27180
10
25.50000
20
25.15000
10
26.11230
20
25.27180
10
26.63140
20
25.61860
10
26.97820
20
26.13770
10
27.10000
20
26.75000
10
26.97820
20
27.36230
10
26.63140
20
27.88140
10
26.11230
20
28.22820
10
25.50000
20
28.35000
0
LWPOLYLINE
8
BODY
90
17
70
1
10
-37.75400
20
-21.78600
10
-38.16820
20
-20.94620
10
-38.25000
20
-20.32500
10
-38.25000
20
20.32500
10
-37.92850
20
21.52500
10
-37.05000
20
22.40350
10
-35.85000
20
22.72500
10
35.85000
20
22.72500
10
37.05000
20
22.40350
10
38.03560
20
21.52500
10
38.25000
20
20.72500
10
38.25000
20
-20.72500
10
37.91940
20
-21.69900
10
37.05000
20
-22.40350
10
35.85000
20
-22.72500
10
-35.85000
20
-22.72500
10
-37.05000
20
-22.40350
0
LWPOLYLINE
8
BODY
90
8
70
1
10
-25.07900
20
15.01630
10
-25.92100
20
15.01630
10
-26.51630
20
14.42100
10
-26.51630
20
13.57900
10
-25.92100
20
12.98370
10
-25.07900
20
12.98370
10
-24.48370
20
13.57900
10
-24.48370
20
14.42100
0
LWPOLYLINE
8
BODY
90
8
70
1
10
-25.35640
20
-12.90940
10
-26.16960
20
-13.12730
10
-26.59060
20
-13.85640
10
-26.37270
20
-14.66960
10
-25.64360
20
-15.09060
10
-24.83040
20
-14.87270
10
-24.40940
20
-14.14360
10
-24.62730
20
-13.33040
0
LWPOLYLINE
8
CORE
90
19
70
1
10
-18.25880
20
-17.60000
10
-18.50000
20
-16.70000
10
-18.50000
20
16.70000
10
-18.36300
20
17.38880
10
-17.97280
20
17.97280
10
-17.38880
20
18.36300
10
-16.70000
20
18.50000
10
16.70000
20
18.50000
10
17.38880
20
18.36300
10
17.97280
20
17.97280
10
18.36300
20
17.38880
10
18.50000
20
16.70000
10
18.50000
20
-16.70000
10
18.36300
20
-17.38880
10
17.97280
20
-17.97280
10
17.38880
20
-18.36300
10
16.70000
20
-18.50000
10
-16.70000
20
-18.50000
10
-17.60000
20
-18.25880
0
LWPOLYLINE
8
PORTS
90
4
70
1
10
-26.80000
20
-22.42500
10
-24.20000
20
-22.42500
10
-24.20000
20
-22.92500
10
-26.80000
20
-22.92500
0
LWPOLYLINE
8
PORTS
90
4
70
1
10
-36.15000
20
21.32500
10
-31.15000
20
21.32500
10
-31.15000
20
-16.72500
10
-36.15000
20
-16.72500
0
LWPOLYLINE
8
PORTS
90
4
70
1
10
-38.13000
20
-14.87500
10
-43.53000
20
-14.87500
10
-43.53000
20
-7.12500
10
-38.13000
20
-7.12500
0
LWPOLYLINE
8
PORTS
90
4
70
1
10
-43.33000
20
-6.65000
10
-43.33000
20
-0.15000
10
-38.13000
20
-0.15000
10
-38.13000
20
-6.65000
0
LWPOLYLINE
8
PORTS
90
4
70
1
10
-37.85000
20
-1.90000
10
-37.85000
20
1.90000
10
-36.45000
20
1.90000
10
-36.45000
20
-1.90000
0
LWPOLYLINE
8
PORTS
90
4
70
1
10
-38.13000
20
7.05000
10
-38.13000
20
0.55000
10
-43.33000
20
0.55000
10
-43.33000
20
7.05000
0
LWPOLYLINE
8
PORTS
90
4
70
1
10
-43.53000
20
7.32500
10
-43.53000
20
15.07500
10
-38.13000
20
15.07500
10
-38.13000
20
7.32500
0
LWPOLYLINE
8
PORTS
90
4
70
1
10
-26.75570
20
22.92500
10
-24.20000
20
22.92500
10
-24.20000
20
22.42500
10
-26.80000
20
22.42500
0
LWPOLYLINE
8
PORTS
90
4
70
1
10
-20.40000
20
-21.47500
10
-25.40000
20
-21.47500
10
-25.40000
20
20.07500
10
-20.40000
20
20.07500
0
LWPOLYLINE
8
PORTS
90
4
70
1
10
-11.25000
20
-22.60500
10
-4.75000
20
-22.60500
10
-4.75000
20
-28.00500
10
-11.25000
20
-28.00500
0
LWPOLYLINE
8
PORTS
90
4
70
1
10
-7.87500
20
22.60500
10
-18.12500
20
22.60500
10
-18.12500
20
28.20500
10
-7.87500
20
28.20500
0
LWPOLYLINE
8
PORTS
90
6
70
1
10
-2.99144
20
22.60500
10
-3.00000
20
29.10500
10
6.00000
20
29.10500
10
6.00000
20
23.02500
10
8.05000
20
23.02500
10
8.05000
20
22.47500
0
LWPOLYLINE
8
PORTS
90
4
70
1
10
-1.87500
20
-22.60500
10
10.87500
20
-22.60500
10
10.87500
20
-28.20500
10
-1.87500
20
-28.20500
0
LWPOLYLINE
8
PORTS
90
4
70
1
10
22.62500
20
-28.20500
10
12.37500
20
-28.20500
10
12.37500
20
-22.60500
10
22.62500
20
-22.60500
0
LWPOLYLINE
8
PORTS
90
4
70
1
10
26.80000
20
-22.92500
10
24.20000
20
-22.92500
10
24.20000
20
-22.42500
10
26.80000
20
-22.42500
0
LWPOLYLINE
8
PORTS
90
4
70
1
10
24.20000
20
22.92500
10
26.80000
20
22.92500
10
26.80000
20
22.42500
10
24.20000
20
22.42500
0
LWPOLYLINE
8
PORTS
90
4
70
1
10
17.87500
20
22.60500
10
10.12500
20
22.60500
10
10.12500
20
28.00500
10
17.87500
20
28.00500
0
LWPOLYLINE
8
PORTS
90
4
70
1
10
28.23000
20
20.35000
10
37.45000
20
20.35000
10
37.45000
20
-20.35000
10
28.23000
20
-20.35000
0
LWPOLYLINE
8
PORTS
90
4
70
1
10
38.13000
20
-3.82500
10
44.33000
20
-3.82500
10
44.33000
20
-16.57500
10
38.13000
20
-16.57500
0
LWPOLYLINE
8
PORTS
90
4
70
1
10
38.13000
20
-3.25000
10
38.13000
20
3.25000
10
44.13000
20
3.25000
10
44.13000
20
-3.25000
0
LWPOLYLINE
8
PORTS
90
6
70
1
10
38.13000
20
3.82500
10
38.00000
20
17.30000
10
38.55000
20
17.30000
10
38.55000
20
16.57500
10
44.33000
20
16.57500
10
44.33000
20
3.82500
0
LWPOLYLINE
8
COURTYARD
90
108
70
1
10
-44.33000
20
-6.52700
10
-44.45388
20
15.45768
10
-43.62802
20
16.07018
10
-39.25000
20
16.07500
10
-39.24620
20
20.41215
10
-38.76718
20
22.06963
10
-37.61641
20
23.22762
10
-36.38117
20
23.68048
10
-32.48949
20
23.72066
10
-32.43289
20
27.73534
10
-31.54539
20
30.30308
10
-30.41821
20
31.75486
10
-29.02808
20
32.82039
10
-26.54203
20
33.68962
10
-24.52171
20
33.70449
10
-21.94439
20
32.80264
10
-19.97386
20
31.07039
10
-18.86816
20
28.87233
10
-18.12500
20
29.20500
10
-7.40360
20
29.08692
10
-6.87982
20
28.30302
10
-6.87500
20
23.72500
10
-4.00000
20
23.72500
10
-3.99518
20
29.20302
10
-3.77301
20
29.73939
10
-3.29028
20
30.06194
10
6.47140
20
29.98692
10
6.99518
20
29.20302
10
7.00000
20
24.02500
10
8.14802
20
24.02018
10
9.12500
20
23.72500
10
9.12982
20
28.10302
10
9.65360
20
28.88692
10
17.87500
20
29.00500
10
18.76020
20
28.46946
10
19.05040
20
29.49373
10
19.92075
20
31.00118
10
22.02858
20
32.85311
10
23.81660
20
33.56205
10
25.54361
20
33.77405
10
27.26932
20
33.54690
10
29.78701
20
32.30809
10
31.02614
20
31.07039
10
31.90932
20
29.57111
10
32.44425
20
27.65241
10
32.48949
20
23.72066
10
36.33846
20
23.68904
10
37.21862
20
23.43522
10
38.31084
20
22.72121
10
38.90164
20
22.02498
10
39.21232
20
21.15148
10
39.24731
20
18.01599
10
39.51077
20
17.57500
10
44.42802
20
17.57018
10
44.96439
20
17.34801
10
45.28694
20
16.86528
10
45.25388
20
-16.95768
10
44.42802
20
-17.57018
10
39.24686
20
-17.57500
10
39.23187
20
-21.02779
10
38.57973
20
-22.45862
10
37.56177
20
-23.26262
10
36.38117
20
-23.68048
10
32.48949
20
-23.72066
10
32.43289
20
-27.73534
10
31.54539
20
-30.30308
10
30.41821
20
-31.75486
10
29.02808
20
-32.82039
10
26.54203
20
-33.68962
10
24.52171
20
-33.70449
10
22.02858
20
-32.85311
10
19.97386
20
-31.07039
10
18.94968
20
-29.20500
10
12.37500
20
-29.20500
10
11.62500
20
-28.86478
10
10.87500
20
-29.20500
10
-2.16528
20
-29.16194
10
-2.64801
20
-28.83939
10
-2.87018
20
-28.30302
10
-2.87500
20
-23.72500
10
-3.75000
20
-23.72500
10
-3.76921
20
-28.20009
10
-4.11561
20
-28.77801
10
-4.75000
20
-29.00500
10
-11.63268
20
-28.92888
10
-12.24518
20
-28.10302
10
-12.25000
20
-23.72500
10
-18.51056
20
-23.72500
10
-18.56711
20
-27.73534
10
-19.05040
20
-29.49373
10
-19.97386
20
-31.07039
10
-21.27382
20
-32.35425
10
-22.86187
20
-33.25799
10
-24.62964
20
-33.71989
10
-27.43558
20
-33.49448
10
-29.03733
20
-32.81457
10
-30.35141
20
-31.81092
10
-31.58320
20
-30.23676
10
-32.44335
20
-27.66150
10
-32.48961
20
-23.70885
10
-36.68874
20
-23.61925
10
-38.35613
20
-22.60986
10
-39.16154
20
-21.06143
10
-39.23662
20
-15.87500
10
-43.62802
20
-15.87018
10
-44.36147
20
-15.43057
10
-44.53000
20
-14.87500
10
-44.53000
20
-7.12500
0
LWPOLYLINE
8
COURTYARD
90
8
70
1
10
25.20977
20
27.25261
10
24.93936
20
26.90024
10
24.99739
20
26.45977
10
25.34976
20
26.18936
10
25.79023
20
26.24739
10
26.06064
20
26.59976
10
26.00261
20
27.04023
10
25.65024
20
27.31064
0
LWPOLYLINE
8
COURTYARD
90
8
70
1
10
25.65024
20
-26.18936
10
25.20977
20
-26.24739
10
24.93936
20
-26.59976
10
24.99739
20
-27.04023
10
25.34976
20
-27.31064
10
25.79023
20
-27.25261
10
26.06064
20
-26.90024
10
26.00261
20
-26.45977
0
LWPOLYLINE
8
COURTYARD
90
8
70
1
10
-25.79023
20
27.25261
10
-26.06064
20
26.90024
10
-26.00261
20
26.45977
10
-25.65024
20
26.18936
10
-25.20977
20
26.24739
10
-24.93936
20
26.59976
10
-24.99739
20
27.04023
10
-25.34976
20
27.31064
0
LWPOLYLINE
8
COURTYARD
90
8
70
1
10
-25.42432
20
-26.17456
10
-25.85329
20
-26.28949
10
-26.07544
20
-26.67432
10
-25.96051
20
-27.10329
10
-25.57568
20
-27.32544
10
-25.14671
20
-27.21051
10
-24.92456
20
-26.82568
10
-25.03949
20
-26.39671
0
CIRCLE
8
MOUNT_HOLE
10
-25.50000
20
-26.75000
30
0.0
40
1.60000
0
CIRCLE
8
PAD_HINT
10
-25.50000
20
-26.75000
30
0.0
40
3.00000
0
TEXT
8
DOC
10
-23.50000
20
-25.25000
30
0.0
40
1.20000
1
1
0
CIRCLE
8
MOUNT_HOLE
10
25.50000
20
-26.75000
30
0.0
40
1.60000
0
CIRCLE
8
PAD_HINT
10
25.50000
20
-26.75000
30
0.0
40
3.00000
0
TEXT
8
DOC
10
27.50000
20
-25.25000
30
0.0
40
1.20000
1
2
0
CIRCLE
8
MOUNT_HOLE
10
25.50000
20
26.75000
30
0.0
40
1.60000
0
CIRCLE
8
PAD_HINT
10
25.50000
20
26.75000
30
0.0
40
3.00000
0
TEXT
8
DOC
10
27.50000
20
28.25000
30
0.0
40
1.20000
1
3
0
CIRCLE
8
MOUNT_HOLE
10
-25.50000
20
26.75000
30
0.0
40
1.60000
0
CIRCLE
8
PAD_HINT
10
-25.50000
20
26.75000
30
0.0
40
3.00000
0
TEXT
8
DOC
10
-23.50000
20
28.25000
30
0.0
40
1.20000
1
4
0
LINE
8
ORIGIN
10
-2.50000
20
0.00000
30
0.0
11
2.50000
21
0.00000
31
0.0
0
LINE
8
ORIGIN
10
0.00000
20
-2.50000
30
0.0
11
0.00000
21
2.50000
31
0.0
0
CIRCLE
8
ORIGIN
10
0.00000
20
0.00000
30
0.0
40
0.25000
0
TEXT
8
DOC
10
-43.53000
20
36.27500
30
0.0
40
2.20000
1
CUAV X25 MEGA TRUE TOP VIEW
0
TEXT
8
DOC
10
-43.53000
20
-36.72370
30
0.0
40
1.40000
1
outline 87.86x65.50mm  holes pitch 51.00x53.50  d=3.2
0
TEXT
8
DOC
10
-43.53000
20
-39.22370
30
0.0
40
1.20000
1
layers: OUTLINE FEET BODY CORE PORTS MOUNT_HOLE
0
ENDSEC
0
EOF
