0
SECTION
2
HEADER
9
$ACADVER
1
AC1015
9
$INSUNITS
70
4
9
$MEASUREMENT
70
1
0
ENDSEC
0
SECTION
2
TABLES
0
TABLE
2
LTYPE
70
1
0
LTYPE
2
CONTINUOUS
70
0
3
Solid line
72
65
73
0
40
0.0
0
ENDTAB
0
TABLE
2
LAYER
70
11
0
LAYER
2
0
70
0
62
7
6
CONTINUOUS
0
LAYER
2
OUTLINE
70
0
62
7
6
CONTINUOUS
0
LAYER
2
FEET
70
0
62
30
6
CONTINUOUS
0
LAYER
2
BODY
70
0
62
3
6
CONTINUOUS
0
LAYER
2
CORE
70
0
62
4
6
CONTINUOUS
0
LAYER
2
PORTS
70
0
62
6
6
CONTINUOUS
0
LAYER
2
MOUNT_HOLE
70
0
62
1
6
CONTINUOUS
0
LAYER
2
PAD_HINT
70
0
62
2
6
CONTINUOUS
0
LAYER
2
COURTYARD
70
0
62
5
6
CONTINUOUS
0
LAYER
2
ORIGIN
70
0
62
2
6
CONTINUOUS
0
LAYER
2
DOC
70
0
62
7
6
CONTINUOUS
0
ENDTAB
0
ENDSEC
0
SECTION
2
ENTITIES
0
LWPOLYLINE
8
OUTLINE
90
131
70
1
10
-36.47120
20
-22.64320
10
-37.54710
20
-22.02210
10
-38.16820
20
-20.94620
10
-38.25000
20
-14.87500
10
-43.53000
20
-14.87500
10
-43.53000
20
-7.12500
10
-38.25000
20
-7.12500
10
-38.25000
20
-6.65000
10
-43.33000
20
-6.65000
10
-43.33000
20
-0.15000
10
-38.25000
20
-0.15000
10
-38.25000
20
0.55000
10
-43.33000
20
0.55000
10
-43.33000
20
7.05000
10
-38.25000
20
7.05000
10
-38.25000
20
7.32500
10
-43.53000
20
7.32500
10
-43.53000
20
15.07500
10
-38.25000
20
15.07500
10
-38.25000
20
20.32500
10
-37.92850
20
21.52500
10
-37.05000
20
22.40350
10
-36.16330
20
22.70450
10
-31.50000
20
22.72500
10
-31.44870
20
27.55820
10
-31.04330
20
29.07110
10
-30.69620
20
29.77500
10
-29.74260
20
31.01760
10
-28.50000
20
31.97120
10
-27.79610
20
32.31830
10
-26.28320
20
32.72370
10
-24.71680
20
32.72370
10
-23.94710
20
32.57060
10
-22.50000
20
31.97120
10
-21.84740
20
31.53510
10
-20.73990
20
30.42760
10
-19.95670
20
29.07110
10
-19.55130
20
27.55820
10
-19.50000
20
22.72500
10
-18.12500
20
22.72500
10
-18.12500
20
28.20500
10
-7.87500
20
28.20500
10
-7.87500
20
22.72500
10
-3.00000
20
22.72500
10
-3.00000
20
29.10500
10
6.00000
20
29.10500
10
6.00000
20
23.02500
10
8.05000
20
23.02500
10
8.05000
20
22.72500
10
10.12500
20
22.72500
10
10.12500
20
28.00500
10
17.87500
20
28.00500
10
17.87500
20
22.72500
10
19.50000
20
22.72500
10
19.55130
20
27.55820
10
19.95670
20
29.07110
10
20.73990
20
30.42760
10
21.84740
20
31.53510
10
22.50000
20
31.97120
10
23.94710
20
32.57060
10
25.50000
20
32.77500
10
27.05290
20
32.57060
10
28.50000
20
31.97120
10
29.15260
20
31.53510
10
30.26010
20
30.42760
10
31.04330
20
29.07110
10
31.44870
20
27.55820
10
31.50000
20
22.72500
10
36.16330
20
22.70450
10
36.76840
20
22.54230
10
37.62400
20
21.99440
10
38.03560
20
21.52500
10
38.23630
20
20.93380
10
38.25000
20
17.30000
10
38.55000
20
17.30000
10
38.55000
20
16.57500
10
44.33000
20
16.57500
10
44.33000
20
3.82500
10
38.25000
20
3.82500
10
38.25000
20
3.25000
10
44.13000
20
3.25000
10
44.13000
20
-3.25000
10
38.25000
20
-3.25000
10
38.25000
20
-3.82500
10
44.33000
20
-3.82500
10
44.33000
20
-16.57500
10
38.25000
20
-16.57500
10
38.23630
20
-20.93380
10
37.78140
20
-21.85640
10
37.05000
20
-22.40350
10
36.16330
20
-22.70450
10
31.50000
20
-22.72500
10
31.44870
20
-27.55820
10
31.04330
20
-29.07110
10
30.69620
20
-29.77500
10
29.74260
20
-31.01760
10
28.50000
20
-31.97120
10
27.79610
20
-32.31830
10
26.28320
20
-32.72370
10
24.71680
20
-32.72370
10
23.94710
20
-32.57060
10
22.50000
20
-31.97120
10
21.84740
20
-31.53510
10
20.73990
20
-30.42760
10
19.95670
20
-29.07110
10
19.67995
20
-28.20500
10
12.37500
20
-28.20500
10
12.37500
20
-22.72500
10
10.87500
20
-22.72500
10
10.87500
20
-28.20500
10
-1.87500
20
-28.20500
10
-1.87500
20
-22.72500
10
-4.75000
20
-22.72500
10
-4.75000
20
-28.00500
10
-11.25000
20
-28.00500
10
-11.25000
20
-22.72500
10
-19.50000
20
-22.72500
10
-19.55130
20
-27.55820
10
-19.95670
20
-29.07110
10
-20.73990
20
-30.42760
10
-21.84740
20
-31.53510
10
-23.20390
20
-32.31830
10
-24.71680
20
-32.72370
10
-26.28320
20
-32.72370
10
-27.05290
20
-32.57060
10
-28.50000
20
-31.97120
10
-29.74260
20
-31.01760
10
-30.69620
20
-29.77500
10
-31.29560
20
-28.32790
10
-31.44870
20
-27.55820
10
-31.50000
20
-22.72500
0
LWPOLYLINE
8
OUTLINE
90
16
70
1
10
-26.30000
20
28.13560
10
-26.76940
20
27.72400
10
-27.04550
20
27.16410
10
-27.08630
20
26.54120
10
-26.88560
20
25.95000
10
-26.47400
20
25.48060
10
-25.91410
20
25.20450
10
-25.29120
20
25.16370
10
-24.70000
20
25.36440
10
-24.23060
20
25.77600
10
-23.95450
20
26.33590
10
-23.91370
20
26.95880
10
-24.11440
20
27.55000
10
-24.52600
20
28.01940
10
-25.08590
20
28.29550
10
-25.70880
20
28.33630
0
LWPOLYLINE
8
OUTLINE
90
16
70
1
10
-25.29120
20
-25.16370
10
-25.91410
20
-25.20450
10
-26.47400
20
-25.48060
10
-26.88560
20
-25.95000
10
-27.08630
20
-26.54120
10
-27.04550
20
-27.16410
10
-26.76940
20
-27.72400
10
-26.30000
20
-28.13560
10
-25.70880
20
-28.33630
10
-25.08590
20
-28.29550
10
-24.52600
20
-28.01940
10
-24.11440
20
-27.55000
10
-23.91370
20
-26.95880
10
-23.95450
20
-26.33590
10
-24.23060
20
-25.77600
10
-24.70000
20
-25.36440
0
LWPOLYLINE
8
OUTLINE
90
3
70
1
10
-27.73067
20
27.53059
10
-27.73067
20
27.53059
10
-27.73067
20
27.53059
0
LWPOLYLINE
8
OUTLINE
90
16
70
1
10
24.70000
20
28.13560
10
24.23060
20
27.72400
10
23.95450
20
27.16410
10
23.91370
20
26.54120
10
24.11440
20
25.95000
10
24.52600
20
25.48060
10
25.08590
20
25.20450
10
25.70880
20
25.16370
10
26.30000
20
25.36440
10
26.76940
20
25.77600
10
27.04550
20
26.33590
10
27.08630
20
26.95880
10
26.88560
20
27.55000
10
26.47400
20
28.01940
10
25.91410
20
28.29550
10
25.29120
20
28.33630
0
LWPOLYLINE
8
OUTLINE
90
16
70
1
10
25.91410
20
-25.20450
10
25.29120
20
-25.16370
10
24.70000
20
-25.36440
10
24.23060
20
-25.77600
10
23.95450
20
-26.33590
10
23.91370
20
-26.95880
10
24.11440
20
-27.55000
10
24.52600
20
-28.01940
10
25.08590
20
-28.29550
10
25.70880
20
-28.33630
10
26.30000
20
-28.13560
10
26.76940
20
-27.72400
10
27.04550
20
-27.16410
10
27.08630
20
-26.54120
10
26.88560
20
-25.95000
10
26.47400
20
-25.48060
0
LWPOLYLINE
8
OUTLINE
90
3
70
1
10
26.71782
20
1.12775
10
26.71782
20
1.12775
10
26.71782
20
1.12775
0
LWPOLYLINE
8
FEET
90
21
70
1
10
-31.29560
20
-12.42210
10
-30.69620
20
-10.97500
10
-29.15260
20
-9.21488
10
-27.79610
20
-8.43172
10
-26.28320
20
-8.02633
10
-24.71680
20
-8.02633
10
-22.50000
20
-8.77885
10
-20.73990
20
-10.32240
10
-19.95670
20
-11.67890
10
-19.50000
20
-13.97500
10
-19.55130
20
-27.55820
10
-19.95670
20
-29.07110
10
-20.73990
20
-30.42760
10
-21.84740
20
-31.53510
10
-23.20390
20
-32.31830
10
-25.50000
20
-32.77500
10
-27.79610
20
-32.31830
10
-29.74260
20
-31.01760
10
-31.04330
20
-29.07110
10
-31.50000
20
-26.77500
10
-31.50000
20
-13.97500
0
LWPOLYLINE
8
FEET
90
16
70
1
10
-25.91410
20
-25.20450
10
-26.47400
20
-25.48060
10
-26.88560
20
-25.95000
10
-27.08630
20
-26.54120
10
-27.04550
20
-27.16410
10
-26.76940
20
-27.72400
10
-26.30000
20
-28.13560
10
-25.70880
20
-28.33630
10
-25.08590
20
-28.29550
10
-24.52600
20
-28.01940
10
-24.11440
20
-27.55000
10
-23.91370
20
-26.95880
10
-23.95450
20
-26.33590
10
-24.23060
20
-25.77600
10
-24.70000
20
-25.36440
10
-25.29120
20
-25.16370
0
LWPOLYLINE
8
FEET
90
3
70
1
10
-27.73067
20
-27.53059
10
-27.73067
20
-27.53059
10
-27.73067
20
-27.53059
0
LWPOLYLINE
8
FEET
90
21
70
1
10
-31.29560
20
12.42210
10
-31.50000
20
13.97500
10
-31.50000
20
26.77500
10
-31.04330
20
29.07110
10
-29.74260
20
31.01760
10
-27.79610
20
32.31830
10
-25.50000
20
32.77500
10
-23.20390
20
32.31830
10
-21.84740
20
31.53510
10
-20.73990
20
30.42760
10
-19.95670
20
29.07110
10
-19.55130
20
27.55820
10
-19.50000
20
13.97500
10
-19.95670
20
11.67890
10
-20.73990
20
10.32240
10
-22.50000
20
8.77885
10
-24.71680
20
8.02633
10
-26.28320
20
8.02633
10
-27.79610
20
8.43172
10
-29.15260
20
9.21488
10
-30.69620
20
10.97500
0
LWPOLYLINE
8
FEET
90
16
70
1
10
-26.11230
20
28.22820
10
-26.63140
20
27.88140
10
-26.97820
20
27.36230
10
-27.10000
20
26.75000
10
-26.97820
20
26.13770
10
-26.63140
20
25.61860
10
-26.11230
20
25.27180
10
-25.50000
20
25.15000
10
-24.88770
20
25.27180
10
-24.36860
20
25.61860
10
-24.02180
20
26.13770
10
-23.90000
20
26.75000
10
-24.02180
20
27.36230
10
-24.36860
20
27.88140
10
-24.88770
20
28.22820
10
-25.50000
20
28.35000
0
LWPOLYLINE
8
FEET
90
3
70
1
10
-27.73067
20
27.53059
10
-27.73067
20
27.53059
10
-27.73067
20
27.53059
0
LWPOLYLINE
8
FEET
90
21
70
1
10
19.70440
20
-12.42210
10
20.30380
20
-10.97500
10
21.84740
20
-9.21488
10
23.20390
20
-8.43172
10
24.71680
20
-8.02633
10
26.28320
20
-8.02633
10
28.50000
20
-8.77885
10
30.26010
20
-10.32240
10
31.04330
20
-11.67890
10
31.50000
20
-13.97500
10
31.44870
20
-27.55820
10
31.04330
20
-29.07110
10
30.26010
20
-30.42760
10
29.15260
20
-31.53510
10
27.79610
20
-32.31830
10
25.50000
20
-32.77500
10
23.20390
20
-32.31830
10
21.25740
20
-31.01760
10
19.95670
20
-29.07110
10
19.50000
20
-26.77500
10
19.50000
20
-13.97500
0
LWPOLYLINE
8
FEET
90
16
70
1
10
25.08590
20
-25.20450
10
24.52600
20
-25.48060
10
24.11440
20
-25.95000
10
23.91370
20
-26.54120
10
23.95450
20
-27.16410
10
24.23060
20
-27.72400
10
24.70000
20
-28.13560
10
25.29120
20
-28.33630
10
25.91410
20
-28.29550
10
26.47400
20
-28.01940
10
26.88560
20
-27.55000
10
27.08630
20
-26.95880
10
27.04550
20
-26.33590
10
26.76940
20
-25.77600
10
26.30000
20
-25.36440
10
25.70880
20
-25.16370
0
LWPOLYLINE
8
FEET
90
21
70
1
10
19.70440
20
12.42210
10
19.50000
20
13.97500
10
19.50000
20
26.77500
10
19.95670
20
29.07110
10
21.25740
20
31.01760
10
23.20390
20
32.31830
10
25.50000
20
32.77500
10
27.79610
20
32.31830
10
29.15260
20
31.53510
10
30.26010
20
30.42760
10
31.04330
20
29.07110
10
31.44870
20
27.55820
10
31.50000
20
13.97500
10
31.04330
20
11.67890
10
30.26010
20
10.32240
10
28.50000
20
8.77885
10
26.28320
20
8.02633
10
24.71680
20
8.02633
10
23.20390
20
8.43172
10
21.84740
20
9.21488
10
20.30380
20
10.97500
0
LWPOLYLINE
8
FEET
90
16
70
1
10
24.88770
20
28.22820
10
24.36860
20
27.88140
10
24.02180
20
27.36230
10
23.90000
20
26.75000
10
24.02180
20
26.13770
10
24.36860
20
25.61860
10
24.88770
20
25.27180
10
25.50000
20
25.15000
10
26.11230
20
25.27180
10
26.63140
20
25.61860
10
26.97820
20
26.13770
10
27.10000
20
26.75000
10
26.97820
20
27.36230
10
26.63140
20
27.88140
10
26.11230
20
28.22820
10
25.50000
20
28.35000
0
CIRCLE
8
MOUNT_HOLE
10
-25.50000
20
-26.75000
30
0.0
40
1.60000
0
TEXT
8
DOC
10
-23.50000
20
-25.25000
30
0.0
40
1.20000
1
1
0
CIRCLE
8
MOUNT_HOLE
10
25.50000
20
-26.75000
30
0.0
40
1.60000
0
TEXT
8
DOC
10
27.50000
20
-25.25000
30
0.0
40
1.20000
1
2
0
CIRCLE
8
MOUNT_HOLE
10
25.50000
20
26.75000
30
0.0
40
1.60000
0
TEXT
8
DOC
10
27.50000
20
28.25000
30
0.0
40
1.20000
1
3
0
CIRCLE
8
MOUNT_HOLE
10
-25.50000
20
26.75000
30
0.0
40
1.60000
0
TEXT
8
DOC
10
-23.50000
20
28.25000
30
0.0
40
1.20000
1
4
0
LINE
8
ORIGIN
10
-2.50000
20
0.00000
30
0.0
11
2.50000
21
0.00000
31
0.0
0
LINE
8
ORIGIN
10
0.00000
20
-2.50000
30
0.0
11
0.00000
21
2.50000
31
0.0
0
ENDSEC
0
EOF
